<svg width="49" height="49" viewBox="0 0 49 49" fill="none" xmlns="http://www.w3.org/2000/svg">
<mask id="mask0_1_1189" style="mask-type:luminance" maskUnits="userSpaceOnUse" x="0" y="0" width="49" height="49">
<path d="M0.208313 0.333344H48.2083V48.3333H0.208313V0.333344Z" fill="white"/>
</mask>
<g mask="url(#mask0_1_1189)">
<path fill-rule="evenodd" clip-rule="evenodd" d="M24.0622 0.455933C37.0461 0.455933 47.5381 11.1254 47.5381 24.1963C47.5381 37.3285 37.0461 47.9367 24.0622 47.9367C11.1388 47.9367 0.589783 37.3285 0.589783 24.1963C0.589783 11.1254 11.1388 0.455933 24.0622 0.455933ZM34.2083 4.44391C31.1352 5.90786 27.7163 6.72997 24.0622 6.72997C20.4721 6.72997 17.0497 5.90786 13.9802 4.44391C12.7609 5.02805 11.6593 5.78887 10.6753 6.55329C14.383 9.48478 19.0212 11.1831 24.0622 11.1831C29.1638 11.1831 33.8019 9.48478 37.5096 6.55329C36.4686 5.78887 35.367 5.02805 34.2083 4.44391ZM15.7163 3.6218C18.2689 4.67829 21.1067 5.26242 24.0622 5.26242C27.0782 5.26242 29.8589 4.67829 32.4686 3.6218C29.8589 2.56531 27.0782 1.91987 24.0622 1.91987C21.1067 1.91987 18.2689 2.56531 15.7163 3.6218ZM38.6682 7.54848C39.3634 8.13622 40.0016 8.83935 40.6397 9.54247C36.5827 14.1723 30.6718 17.0461 24.0622 17.0461C17.5131 17.0461 11.6023 14.1723 7.54522 9.54247C8.18337 8.83935 8.82151 8.13622 9.5167 7.54848C13.5167 10.7143 18.5577 12.6506 24.0622 12.6506C29.5702 12.6506 34.6718 10.7143 38.6682 7.54848ZM41.5666 10.6567C41.973 11.2408 42.4365 11.8285 42.7859 12.474C38.8999 18.7444 31.9445 22.9668 24.0622 22.9668C16.1798 22.9668 9.28497 18.7444 5.40262 12.474C5.74843 11.8285 6.15485 11.2408 6.6183 10.6567C10.9071 15.5208 17.1673 18.51 24.0622 18.51C31.0176 18.51 37.2778 15.5208 41.5666 10.6567ZM43.5951 13.8802C43.8839 14.4067 44.1192 14.9367 44.3509 15.4631C40.9285 23.3165 33.1638 28.8297 24.0622 28.8297C15.0212 28.8297 7.25645 23.3165 3.83755 15.4631C4.06928 14.9367 4.30101 14.4067 4.58978 13.8802C8.76447 20.2696 15.9481 24.4307 24.0622 24.4307C32.2368 24.4307 39.3634 20.2696 43.5951 13.8802ZM45.0461 17.3381C45.1602 17.6915 45.2172 18.0413 45.3349 18.3946C42.7859 27.8309 34.2083 34.7504 24.0622 34.7504C13.9196 34.7504 5.40262 27.8309 2.85003 18.3946C2.91064 18.0413 3.02472 17.6915 3.14237 17.3381C7.02472 25.0761 14.9641 30.2937 24.0622 30.2937C33.2208 30.2937 41.1602 25.0761 45.0461 17.3381ZM45.9124 21.2648V21.4415C44.408 32.2877 35.2493 40.6098 24.0622 40.6098C12.9356 40.6098 3.71991 32.2877 2.21189 21.4415L2.27249 21.2648C5.74843 30.0593 14.2119 36.2143 24.0622 36.2143C33.973 36.2143 42.4365 30.0593 45.9124 21.2648ZM45.9124 27.1855C44.465 38.0893 35.2493 46.4728 24.0622 46.4728C12.9356 46.4728 3.71991 38.0893 2.27249 27.1855C5.74843 35.9223 14.2119 42.0773 24.0622 42.0773C33.973 42.0773 42.4365 35.9223 45.9124 27.1855Z" fill="#AC6AFF"/>
</g>
</svg>
