<svg width="27" height="27" viewBox="0 0 27 27" fill="none" xmlns="http://www.w3.org/2000/svg">
<mask id="mask0_1_1189" style="mask-type:luminance" maskUnits="userSpaceOnUse" x="0" y="0" width="27" height="27">
<path d="M0.208313 0.333344H26.2083V26.3333H0.208313V0.333344Z" fill="white"/>
</mask>
<g mask="url(#mask0_1_1189)">
<path fill-rule="evenodd" clip-rule="evenodd" d="M13.1291 0.39975C20.1621 0.39975 25.8453 6.17905 25.8453 13.2591C25.8453 20.3724 20.1621 26.1185 13.1291 26.1185C6.12897 26.1185 0.414917 20.3724 0.414917 13.2591C0.414917 6.17905 6.12897 0.39975 13.1291 0.39975ZM18.625 2.55991C16.9604 3.35287 15.1085 3.79819 13.1291 3.79819C11.1845 3.79819 9.33069 3.35287 7.66804 2.55991C7.00761 2.87631 6.41091 3.28842 5.87793 3.70248C7.88625 5.29037 10.3986 6.2103 13.1291 6.2103C15.8925 6.2103 18.4048 5.29037 20.4131 3.70248C19.8493 3.28842 19.2526 2.87631 18.625 2.55991ZM8.60847 2.11459C9.99112 2.68686 11.5283 3.00327 13.1291 3.00327C14.7628 3.00327 16.269 2.68686 17.6826 2.11459C16.269 1.54233 14.7628 1.19272 13.1291 1.19272C11.5283 1.19272 9.99112 1.54233 8.60847 2.11459ZM21.0407 4.24155C21.4173 4.55991 21.763 4.94077 22.1086 5.32162C19.9111 7.82944 16.7093 9.38608 13.1291 9.38608C9.58173 9.38608 6.38001 7.82944 4.18245 5.32162C4.52811 4.94077 4.87377 4.55991 5.25033 4.24155C7.417 5.95639 10.1475 7.00522 13.1291 7.00522C16.1126 7.00522 18.876 5.95639 21.0407 4.24155ZM22.6107 5.92514C22.8308 6.24155 23.0819 6.55991 23.2711 6.90952C21.1663 10.306 17.3987 12.5931 13.1291 12.5931C8.85951 12.5931 5.12481 10.306 3.02187 6.90952C3.20918 6.55991 3.42933 6.24155 3.68037 5.92514C6.00345 8.55991 9.39442 10.179 13.1291 10.179C16.8966 10.179 20.2876 8.55991 22.6107 5.92514ZM23.7095 7.67123C23.8659 7.95639 23.9934 8.2435 24.1189 8.52866C22.265 12.7826 18.0592 15.7689 13.1291 15.7689C8.23191 15.7689 4.02603 12.7826 2.17413 8.52866C2.29965 8.2435 2.42517 7.95639 2.58158 7.67123C4.84287 11.1322 8.73399 13.3861 13.1291 13.3861C17.5571 13.3861 21.4173 11.1322 23.7095 7.67123ZM24.4954 9.54428C24.5572 9.73569 24.5881 9.92514 24.6518 10.1165C23.2711 15.2279 18.625 18.9759 13.1291 18.9759C7.63521 18.9759 3.02187 15.2279 1.63922 10.1165C1.67205 9.92514 1.73384 9.73569 1.79757 9.54428C3.90051 13.7357 8.20101 16.5619 13.1291 16.5619C18.0901 16.5619 22.3906 13.7357 24.4954 9.54428ZM24.9647 11.6712V11.7669C24.1498 17.6419 19.1888 22.1497 13.1291 22.1497C7.10223 22.1497 2.1104 17.6419 1.29356 11.7669L1.32638 11.6712C3.20918 16.4349 7.79356 19.7689 13.1291 19.7689C18.4975 19.7689 23.0819 16.4349 24.9647 11.6712ZM24.9647 14.8783C24.1807 20.7845 19.1888 25.3255 13.1291 25.3255C7.10223 25.3255 2.1104 20.7845 1.32638 14.8783C3.20918 19.6107 7.79356 22.9447 13.1291 22.9447C18.4975 22.9447 23.0819 19.6107 24.9647 14.8783Z" fill="white"/>
</g>
</svg>
